<?xml version="1.0" encoding="utf-8"?>
<svg xmlns="http://www.w3.org/2000/svg" xmlns:xlink="http://www.w3.org/1999/xlink" viewBox="0 0 200 160">
    <defs>
        <rect id="b" width="296" height="407" x="32" y="93" rx="16"/>
        <filter id="a" width="116.2%" height="111.8%" x="-8.1%" y="-5.2%" filterUnits="objectBoundingBox">
            <feOffset dy="3" in="SourceAlpha" result="shadowOffsetOuter1"/>
            <feGaussianBlur in="shadowOffsetOuter1" result="shadowBlurOuter1" stdDeviation="7.5"/>
            <feColorMatrix in="shadowBlurOuter1" values="0 0 0 0 0 0 0 0 0 0 0 0 0 0 0 0 0 0 0.0931555707 0"/>
        </filter>
        <path id="c" d="M.242.038h20.142v30.459H.242z"/>
        <path id="e" d="M.021.416h20.143v30.46H.02z"/>
        <path id="g" d="M.204.21h112.157v117.032H.204z"/>
        <path id="i" d="M.122.356h19.552v46.9H.122z"/>
    </defs>
    <g fill="none" fill-rule="evenodd">
        <g transform="translate(-80 -112)">
            <use fill="#000" filter="url(#a)" xlink:href="#b"/>
            <use fill="#f5f5f5" xlink:href="#b"/>
        </g>
        <path fill="#f5f5f5" d="M-32-19h264c8.837 0 16 7.163 16 16v132H-48V-3c0-8.837 7.163-16 16-16z"/>
        <path fill="#CCCBC6" d="M142.783 101.174s-7.78 7.733-6.583 16.061 2.394 14.277 2.394 14.277-1.995 4-.599 8.725c0 0 5.786-1.455 7.382 4.725h-15.163s1.596-13.847 0-18.01c-1.596-4.165-3.79-10.312-.998-26.968l13.567 1.19zM70.361 103.355s3.99 6.543 0 12.095c-3.99 5.552-9.377 8.527-9.377 8.527l7.98 20.985H79.54s.399-5.716-6.784-4.725c0 0-6.58-5.354-2.492-12.295 4.089-6.94 13.665-5.353 18.453-16.854 4.788-11.5 0-24.641 0-24.641l-18.355 16.908zM56.744 83.87s-3.142 15.915-7.73 22.26c-2.494 3.45-5.047 7.977-6.858 11.391-.656 1.238.907 2.437 1.954 1.503 3.757-3.351 9.353-9.373 14.68-19.04 9.177-16.656-2.046-16.114-2.046-16.114"/>
        <g transform="translate(113.62 14.56)">
            <mask id="d" fill="#fff">
                <use xlink:href="#c"/>
            </mask>
            <path fill="#C1A091" d="M20.384 16.616S13.402 7.296 8.813 3.331C4.224-.635 1.63-.24.433.555c-1.196.793 3.592 22.605 3.99 25.183.4 2.577 9.834 4.759 9.834 4.759l6.127-13.88z" mask="url(#d)"/>
        </g>
        <g transform="translate(151.537 16.355)">
            <mask id="f" fill="#fff">
                <use xlink:href="#e"/>
            </mask>
            <path fill="#C1A091" d="M.021 16.995s6.984-9.32 11.572-13.286C16.182-.257 18.776.14 19.973.933c1.197.793-3.591 22.605-3.99 25.183-.4 2.578-9.834 4.76-9.834 4.76L.021 16.994z" mask="url(#f)"/>
        </g>
        <path fill="#CCCBC6" d="M148.412 83.868c-3.192 0-3.905 5.81-7.791 8.954 0-3.173-.897-9.018-2.493-12.19-5.71 17.026-25.717 24.293-40.976 23.348 2.197.735 4.355 1.57 6.33 2.514 10.372 4.957 14.163 6.94 24.737 6.345 7.697-.432 15.903-8.97 20.425-20.535-.528-1.14.927-7.572-.232-8.436"/>
        <g transform="translate(46.815 27.72)">
            <mask id="h" fill="#fff">
                <use xlink:href="#g"/>
            </mask>
            <path fill="#DDDBD3" d="M97.165.25C90-.27 79.808 4.218 76.615 15.718c-3.191 11.501-3.39 13.646-3.39 13.646S56.864 35.15 41.9 36.736c-14.963 1.586-27.532 3.569-33.318 23.398 0 0-1.197 15.07 0 25.58 0 0-.2 5.948-5.985 9.32L.204 117.242h11.97s-.199-6.94-6.982-6.345c0 0 .598-11.5 7.98-17.648 7.382-6.147 17.756-21.415 17.756-21.415s10.07 1.3 19.409 4.425c15.259.946 33.736-.849 39.447-17.876 1.596 3.173 1.596 6.345 1.596 9.518 4.788 0 4.788-6.345 7.98-6.345a7.783 7.783 0 0 1 2.47 3.028c1.69-4.324 2.882-9.057 3.316-13.968 1.596-18.044 6.584-24.984 7.182-35.494.599-10.51-6.983-14.277-15.163-14.871" mask="url(#h)"/>
        </g>
        <g transform="translate(108.204 97.707)">
            <mask id="j" fill="#fff">
                <use xlink:href="#i"/>
            </mask>
            <path fill="#DDDBD3" d="M19.674.356S7.247 11.2 8.444 19.528c1.197 8.329 2.394 14.277 2.394 14.277s-1.995 4-.598 8.725c0 0 5.785-1.455 7.381 4.726H2.458s1.596-13.847 0-18.012c-1.595-4.164-3.79-10.31-.997-26.967L19.674.357z" mask="url(#j)"/>
        </g>
        <path fill="#B99C7A" d="M143.98 27.971s-2.594 5.652-6.45 8.031c3.458 3.173 3.225 7.139 3.225 7.139s-9.61 4.758-9.743 13.483c0 0-5.208-.851-5.187-6.478.022-5.625-1.892-8.856-1.892-8.856s4.818-13.815 20.047-13.319M145.909 27.93s2.261 3.974 4.921 6.221c2.66 2.248 3.82 2.909 3.82 2.909s-3.457-.53-4.37 3.172c-.913 3.701 4.202 7.536 4.37 9.121.17 1.587-2.09 5.156-2.09 5.156s1.064 0 .665 2.115c-.4 2.115-5.188 3.305-5.188 3.305s1.073 2.942 6.19 4.247c0 0 4.251-13.368 4.95-19.845.698-6.478.299-14.558-13.268-16.4"/>
        <path fill="#211915" d="M147.771 49.882s-.931 3.173-4.788 4.76c-3.858 1.586-7.183 0-7.183 0s3.356 2.914 11.04-.662c0 0 2.43 1.579 5.804 1.781 0 0-3.026-1.118-4.208-2.94-1.182-1.82-.665-2.939-.665-2.939"/>
        <path fill="#B99C7A" d="M88.716 64.456c-5.526.586-10.723 1.229-15.375 2.802-3.32 3.19-3.79 8.163.865 10.65s11.725-6.024 19.903-14.184a98.044 98.044 0 0 1-5.393.732M105.21 101.545c9.708-2.883 1.032-29.714 7.07-42.02-4.156 1.203-9.58 2.618-15.287 3.69-6.228 10.673-1.494 41.214 8.216 38.33"/>
        <path fill="#211915" d="M147.142 49.863s-2.908-2.371-3.132-3.26c-.223-.89.8-1.928 3.606-2.002 2.807-.074 3.738.816 4.017 1.779.28.963-2.776 3.483-2.776 3.483h-1.715z"/>
        <path fill="#382E2B" d="M147.142 46.38c-.224-.667-2.163-.667-2.163 0s1.131.85 1.131.85l.357 2.062c.394.342.675.57.675.57h.04c.052-1.079.119-3.009-.04-3.482M150.674 46.38c0-.667-1.939-.667-2.163 0-.158.473-.092 2.403-.04 3.483h.386s.103-.086.27-.23l.416-2.403s1.13-.183 1.13-.85"/>
        <path fill="#543107" d="M138.128 41.984a3.083 3.083 0 0 1-3.092 3.073 3.083 3.083 0 0 1-3.092-3.073 3.083 3.083 0 0 1 3.092-3.074 3.083 3.083 0 0 1 3.092 3.074M157.743 41.984a3.083 3.083 0 0 1-3.092 3.073 3.083 3.083 0 0 1-3.092-3.073 3.083 3.083 0 0 1 3.092-3.074 3.083 3.083 0 0 1 3.092 3.074"/>
    </g>
</svg>